<?xml version="1.0" encoding="UTF-8"?>
<svg width="400" height="300" viewBox="0 0 400 300" fill="none" xmlns="http://www.w3.org/2000/svg">
  <!-- Background Elements -->
  <circle cx="200" cy="150" r="120" fill="#FFFFFF" fill-opacity="0.1"/>
  <circle cx="200" cy="150" r="100" fill="#FFFFFF" fill-opacity="0.15"/>
  
  <!-- Main Building -->
  <rect x="150" y="100" width="100" height="120" fill="#FFFFFF" fill-opacity="0.9"/>
  <rect x="170" y="120" width="20" height="20" fill="#FFFFFF" fill-opacity="0.7"/>
  <rect x="200" y="120" width="20" height="20" fill="#FFFFFF" fill-opacity="0.7"/>
  <rect x="230" y="120" width="20" height="20" fill="#FFFFFF" fill-opacity="0.7"/>
  <rect x="170" y="150" width="20" height="20" fill="#FFFFFF" fill-opacity="0.7"/>
  <rect x="200" y="150" width="20" height="20" fill="#FFFFFF" fill-opacity="0.7"/>
  <rect x="230" y="150" width="20" height="20" fill="#FFFFFF" fill-opacity="0.7"/>
  
  <!-- Roof -->
  <path d="M140 100L200 60L260 100" stroke="#FFFFFF" stroke-width="4" fill="none"/>
  
  <!-- Door -->
  <rect x="185" y="180" width="30" height="40" fill="#FFFFFF" fill-opacity="0.7"/>
  <circle cx="210" cy="200" r="2" fill="#FFFFFF"/>
  
  <!-- Decorative Elements -->
  <circle cx="100" cy="80" r="5" fill="#FFFFFF" fill-opacity="0.5"/>
  <circle cx="300" cy="80" r="5" fill="#FFFFFF" fill-opacity="0.5"/>
  <circle cx="100" cy="220" r="5" fill="#FFFFFF" fill-opacity="0.5"/>
  <circle cx="300" cy="220" r="5" fill="#FFFFFF" fill-opacity="0.5"/>
</svg> 