<?xml version="1.0" encoding="UTF-8"?>
<svg width="400" height="300" viewBox="0 0 400 300" fill="none" xmlns="http://www.w3.org/2000/svg">
  <!-- Background Elements -->
  <circle cx="200" cy="150" r="120" fill="#FFFFFF" fill-opacity="0.1"/>
  <circle cx="200" cy="150" r="100" fill="#FFFFFF" fill-opacity="0.15"/>
  
  <!-- Calendar -->
  <rect x="120" y="80" width="160" height="140" rx="8" fill="#FFFFFF" fill-opacity="0.9"/>
  <rect x="120" y="80" width="160" height="30" rx="8" fill="#FFFFFF" fill-opacity="0.7"/>
  
  <!-- Calendar Grid -->
  <line x1="120" y1="110" x2="280" y2="110" stroke="#FFFFFF" stroke-width="2" stroke-opacity="0.5"/>
  <line x1="160" y1="80" x2="160" y2="220" stroke="#FFFFFF" stroke-width="2" stroke-opacity="0.5"/>
  <line x1="200" y1="80" x2="200" y2="220" stroke="#FFFFFF" stroke-width="2" stroke-opacity="0.5"/>
  <line x1="240" y1="80" x2="240" y2="220" stroke="#FFFFFF" stroke-width="2" stroke-opacity="0.5"/>
  
  <!-- Calendar Events -->
  <rect x="130" y="120" width="20" height="20" fill="#FFFFFF" fill-opacity="0.7"/>
  <rect x="170" y="150" width="20" height="20" fill="#FFFFFF" fill-opacity="0.7"/>
  <rect x="210" y="180" width="20" height="20" fill="#FFFFFF" fill-opacity="0.7"/>
  
  <!-- Clock -->
  <circle cx="320" cy="100" r="30" fill="#FFFFFF" fill-opacity="0.9"/>
  <line x1="320" y1="100" x2="320" y2="85" stroke="#FFFFFF" stroke-width="2"/>
  <line x1="320" y1="100" x2="335" y2="100" stroke="#FFFFFF" stroke-width="2"/>
  
  <!-- Location Pin -->
  <path d="M320 160L320 200L300 220L340 220L320 200Z" fill="#FFFFFF" fill-opacity="0.9"/>
  <circle cx="320" cy="160" r="10" fill="#FFFFFF" fill-opacity="0.9"/>
  
  <!-- Decorative Elements -->
  <circle cx="80" cy="80" r="5" fill="#FFFFFF" fill-opacity="0.5"/>
  <circle cx="80" cy="220" r="5" fill="#FFFFFF" fill-opacity="0.5"/>
  <circle cx="320" cy="240" r="5" fill="#FFFFFF" fill-opacity="0.5"/>
</svg> 